<?xml version="1.0" encoding="UTF-8" standalone="no"?>
<svg
   xmlns:dc="http://purl.org/dc/elements/1.1/"
   xmlns:cc="http://creativecommons.org/ns#"
   xmlns:rdf="http://www.w3.org/1999/02/22-rdf-syntax-ns#"
   xmlns:svg="http://www.w3.org/2000/svg"
   xmlns="http://www.w3.org/2000/svg"
   id="svg8"
   version="1.1"
   viewBox="0 0 64 64"
   height="64mm"
   width="64mm">
  <defs
     id="defs2" />
  <metadata
     id="metadata5">
    <rdf:RDF>
      <cc:Work
         rdf:about="">
        <dc:format>image/svg+xml</dc:format>
        <dc:type
           rdf:resource="http://purl.org/dc/dcmitype/StillImage" />
        <dc:title></dc:title>
      </cc:Work>
    </rdf:RDF>
  </metadata>
  <g
     id="layer1">
    <path
       id="path24"
       d="M 3.5738799,59.969849 C 2.8771763,59.844937 2.5623459,59.321267 2.6236123,58.389231 L 2.6529693,57.94249 H 31.994975 61.336982 l 0.02694,0.512678 c 0.03435,0.653932 -0.156711,1.165234 -0.510945,1.367281 -0.24623,0.140444 -3.068687,0.158234 -28.615953,0.18033 -15.588525,0.01347 -28.4869427,-0.0016 -28.6631463,-0.03295 z m 1.366894,-3.094417 c -0.00404,-0.01373 -0.025616,-1.259729 -0.047898,-2.283517 l -0.040535,-2.126476 27.1172471,-5.3e-5 27.117246,-5.2e-5 -0.01991,2.126529 -0.01991,2.258585 -27.049465,0.025 c -14.877204,0.01373 -27.0527757,0.01373 -27.0568237,0 z m -1.803e-4,-5.675231 c -0.020615,-0.02263 -0.025649,-1.26854 -0.011159,-2.283352 l 0.026398,-2.110155 H 31.994913 59.033992 l 0.02643,2.076834 c 0.01452,0.996488 0.01392,2.242401 -0.0014,2.283353 -0.02824,0.07559 -54.0495177,0.10887 -54.118384,0.03332 z m -0.019118,-7.876137 0.01837,-2.12648 H 31.993426 59.047007 l 0.01991,2.126529 0.01991,2.258588 -27.091851,-5e-5 -27.0918524,-4.5e-5 z m 0.0079,-5.68352 -0.026262,-2.151567 27.0918514,1.01e-4 27.091856,9.7e-5 -0.01841,2.126484 -0.01836,2.25854 -27.047198,0.025 -27.0472044,0.025 -0.026268,-2.283632 z M 60.772561,36.482008 c -0.271558,-0.120518 -0.380632,-0.613422 -0.380632,-1.72011 0,-1.037104 0.01293,-1.115726 0.220928,-1.345158 0.278423,-0.307104 0.745149,-0.325944 1.022188,-0.04127 0.182803,0.187844 0.196986,0.293806 0.196986,1.471839 0,1.198546 -0.01163,1.28147 -0.208318,1.485276 -0.196421,0.203538 -0.578185,0.270551 -0.851152,0.149411 z M 4.9481421,31.981745 V 29.830451 H 31.989678 c 14.872844,0 27.055132,0.0335 27.071749,0.07445 0.01664,0.04095 0.01572,1.15481 -0.0021,2.151294 l -0.03217,2.208896 H 31.9877 4.9481421 Z M 60.931966,22.806218 v -9.68572 l 0.202513,0.03408 0.202515,0.03412 v 9.619908 9.619908 l -0.202515,0.0317 -0.202513,0.03171 z M 4.9179613,26.34776 4.9327933,24.22134 H 31.991437 59.050083 l 0.01837,2.126483 0.01836,2.25854 -27.091848,-6.5e-5 -27.0918522,-6e-5 z m 0.00436,-5.509768 c 0.010542,-0.941888 0.020684,-2.055821 0.022486,-2.151464 0.00307,-0.165343 1.3349169,-0.172668 27.0683027,-0.148917 l 27.06499,0.025 -0.0054,0.248191 c -0.0031,0.136504 -0.0111,1.23919 -0.01813,2.126474 l -0.01283,2.010343 -27.069349,9e-6 -27.0693485,1.1e-5 0.019187,-2.10963 z m 0.00714,-5.791353 c -0.014492,-1.014811 -0.00945,-2.128667 0.011158,-2.151292 0.049036,-0.05379 54.0596557,-0.05379 54.1086957,0 0.02061,0.02263 0.02566,1.136481 0.01116,2.151292 l -0.02633,2.242217 H 31.994971 4.9558065 l -0.02633,-2.242217 z M 2.6295145,7.3860453 2.652953,3.0427083 h 29.342004 29.342008 l 0.02343,4.343337 0.02343,4.3433357 H 31.994961 2.606059 Z M 0.4820727,9.7528341 C 0.32765448,9.6489747 0.1555162,9.4191048 0.09954628,9.2420098 -0.02994694,8.8322876 -0.03439995,6.177237 0.09379728,5.8040912 0.28458428,5.2486826 0.5197308,5.0778724 1.0935578,5.0778724 H 1.6179056 V 7.5101408 9.9424137 L 1.1903768,9.9420365 C 0.92910424,9.9418378 0.65366335,9.8682374 0.48208643,9.7528307 Z M 62.372042,7.5101408 V 5.0778724 h 0.475009 c 0.533801,0 0.806258,0.160882 1.010605,0.5967532 0.186714,0.3982524 0.191679,3.1304469 0.0065,3.6190853 -0.158136,0.4174927 -0.544028,0.6487028 -1.08268,0.6487028 h -0.409493 z"
       style="fill:#000000;stroke-width:0.0945276" />
  </g>
</svg>
