<?xml version="1.0" encoding="UTF-8" standalone="no"?>
<!-- Created with Inkscape (http://www.inkscape.org/) -->

<svg
   width="48"
   height="48"
   viewBox="0 0 12.7 12.7"
   version="1.1"
   id="svg5"
   xml:space="preserve"
   xmlns="http://www.w3.org/2000/svg"
   xmlns:svg="http://www.w3.org/2000/svg"><g
     id="layer1"><path
       style="fill:#000000;stroke-width:0.0586158"
       d="M 5.1151524,12.532716 C 2.55901,11.995569 0.68908145,10.114493 0.15968315,7.5477011 c -0.1711417,-0.829779 -0.1390878,-1.927524 0.080786,-2.766661 0.4712784,-1.798612 1.64931765,-3.25206 3.29205525,-4.06169103 3.1351391,-1.54516996 6.8857526,-0.30765 8.4386436,2.78433903 1.088655,2.167642 0.854274,4.729073 -0.610619,6.6731329 -0.940518,1.24816 -2.3693055,2.112475 -3.9527885,2.391155 -0.657086,0.115642 -1.646956,0.100418 -2.2926081,-0.03526 z m 0.615466,-1.492829 v -0.967163 h 0.615466 0.615468 v 0.973685 0.973685 l 0.219809,-0.03903 c 0.869632,-0.154427 1.717529,-0.495284 2.425091,-0.974899 0.205598,-0.139362 0.5650486,-0.446829 0.7987796,-0.683256 L 10.830198,9.8930378 V 8.5174861 7.1419341 h 0.577681 0.577684 l 0.03689,-0.395038 c 0.02029,-0.217269 0.02031,-0.573361 5.8e-5,-0.791313 l -0.03683,-0.396277 h -0.577742 -0.577741 v -1.375552 -1.375553 l -0.432675,-0.438327 c -0.4876266,-0.494 -1.2132186,-0.990964 -1.8256396,-1.250396 -0.66177,-0.28033803 -1.727564,-0.51360103 -1.727564,-0.37810003 0,0.03472 0.02637,0.07943 0.05862,0.09935 0.03323,0.02054 0.05862,0.31059203 0.05862,0.66963703 0,0.720238 -0.06985,0.87888 -0.440885,1.001333 -0.171928,0.05674 -0.239545,0.0504 -0.423584,-0.03972 -0.12045,-0.05898 -0.25179,-0.173182 -0.291867,-0.253778 -0.09042,-0.181838 -0.09879,-1.193429 -0.01124,-1.35703903 0.03485,-0.06512 0.04819,-0.133578 0.02963,-0.152132 -0.05258,-0.05258 -0.834407,0.102369 -1.278266,0.253335 C 3.6809974,1.2563491 2.9316595,1.7261641 2.2869372,2.3783281 l -0.4249646,0.429871 v 1.375553 1.375552 H 1.2842278 0.70648665 l -0.03683,0.396278 c -0.020256,0.217951 -0.020227,0.574044 5.91e-5,0.791313 l 0.036887,0.395037 H 1.2842858 1.8619681 v 1.356497 1.3564997 l 0.2660132,0.3113732 c 0.6673934,0.781191 1.9267566,1.506299 3.0457821,1.753677 0.610008,0.134852 0.556851,0.218867 0.556851,-0.880093 z M 3.4154233,7.2254351 C 3.0258387,7.0223001 2.8033647,6.6566661 2.8011134,6.2158211 c -0.00473,-0.921515 1.0545044,-1.418268 1.808116,-0.847974 0.600437,0.454379 0.506785,1.488369 -0.16589,1.831542 -0.2820399,0.143885 -0.7778228,0.156449 -1.0279161,0.02605 z m 4.8208801,-0.02573 c -0.120975,-0.06564 -0.292427,-0.228849 -0.381004,-0.362699 -0.132427,-0.200111 -0.161051,-0.308333 -0.161051,-0.608944 0,-0.3118 0.02587,-0.402201 0.175848,-0.614526 0.227823,-0.322526 0.553286,-0.490975 0.937882,-0.485417 1.054264,0.01524 1.4808946,1.350718 0.637104,1.99431 -0.288907,0.220359 -0.875893,0.257884 -1.208779,0.07728 z"
       id="path302" /></g></svg>
